<?xml version="1.0" encoding="utf-8" standalone="no"?>
<!DOCTYPE svg PUBLIC "-//W3C//DTD SVG 1.1//EN"
  "http://www.w3.org/Graphics/SVG/1.1/DTD/svg11.dtd">
<svg xmlns:xlink="http://www.w3.org/1999/xlink" width="864pt" height="252pt" viewBox="0 0 864 252" xmlns="http://www.w3.org/2000/svg" version="1.1">
 <metadata>
  <rdf:RDF xmlns:dc="http://purl.org/dc/elements/1.1/" xmlns:cc="http://creativecommons.org/ns#" xmlns:rdf="http://www.w3.org/1999/02/22-rdf-syntax-ns#">
   <cc:Work>
    <dc:type rdf:resource="http://purl.org/dc/dcmitype/StillImage"/>
    <dc:date>2026-10-03T11:08:08.614280</dc:date>
    <dc:format>image/svg+xml</dc:format>
    <dc:creator>
     <cc:Agent>
      <dc:title>Matplotlib v3.10.9, https://matplotlib.org/</dc:title>
     </cc:Agent>
    </dc:creator>
   </cc:Work>
  </rdf:RDF>
 </metadata>
 <defs>
  <style type="text/css">*{stroke-linejoin: round; stroke-linecap: butt}</style>
 </defs>
 <g id="figure_1">
  <g id="patch_1">
   <path d="M 0 252 
L 864 252 
L 864 0 
L 0 0 
z
" style="fill: #ffffff"/>
  </g>
  <g id="axes_1">
   <g id="patch_2">
    <path d="M 52.30649 232.321635 
L 210.400541 232.321635 
L 210.400541 34.198095 
L 52.30649 34.198095 
z
" style="fill: #ffffff"/>
   </g>
   <g id="matplotlib.axis_1">
    <g id="xtick_1">
     <g id="line2d_1">
      <defs>
       <path id="m90b7a62028" d="M 0 0 
L 0 3.5 
" style="stroke: #000000; stroke-width: 0.8"/>
      </defs>
      <g>
       <use xlink:href="#m90b7a62028" x="91.830003" y="232.321635" style="stroke: #000000; stroke-width: 0.8"/>
      </g>
     </g>
     <g id="text_1">
      <!-- AP/P -->
      <g transform="translate(80.695628 246.920073) scale(0.1 -0.1)">
       <defs>
        <path id="DejaVuSans-41" d="M 2188 4044 
L 1331 1722 
L 3047 1722 
L 2188 4044 
z
M 1831 4666 
L 2547 4666 
L 4325 0 
L 3669 0 
L 3244 1197 
L 1141 1197 
L 716 0 
L 50 0 
L 1831 4666 
z
" transform="scale(0.015625)"/>
        <path id="DejaVuSans-50" d="M 1259 4147 
L 1259 2394 
L 2053 2394 
Q 2494 2394 2734 2622 
Q 2975 2850 2975 3272 
Q 2975 3691 2734 3919 
Q 2494 4147 2053 4147 
L 1259 4147 
z
M 628 4666 
L 2053 4666 
Q 2838 4666 3239 4311 
Q 3641 3956 3641 3272 
Q 3641 2581 3239 2228 
Q 2838 1875 2053 1875 
L 1259 1875 
L 1259 0 
L 628 0 
L 628 4666 
z
" transform="scale(0.015625)"/>
        <path id="DejaVuSans-2f" d="M 1625 4666 
L 2156 4666 
L 531 -594 
L 0 -594 
L 1625 4666 
z
" transform="scale(0.015625)"/>
       </defs>
       <use xlink:href="#DejaVuSans-41"/>
       <use xlink:href="#DejaVuSans-50" transform="translate(68.408203 0)"/>
       <use xlink:href="#DejaVuSans-2f" transform="translate(128.710938 0)"/>
       <use xlink:href="#DejaVuSans-50" transform="translate(162.402344 0)"/>
      </g>
     </g>
    </g>
    <g id="xtick_2">
     <g id="line2d_2">
      <g>
       <use xlink:href="#m90b7a62028" x="170.877028" y="232.321635" style="stroke: #000000; stroke-width: 0.8"/>
      </g>
     </g>
     <g id="text_2">
      <!-- P/P -->
      <g transform="translate(163.162966 246.920073) scale(0.1 -0.1)">
       <use xlink:href="#DejaVuSans-50"/>
       <use xlink:href="#DejaVuSans-2f" transform="translate(60.302734 0)"/>
       <use xlink:href="#DejaVuSans-50" transform="translate(93.994141 0)"/>
      </g>
     </g>
    </g>
   </g>
   <g id="matplotlib.axis_2">
    <g id="ytick_1">
     <g id="line2d_3">
      <path d="M 52.30649 205.725691 
L 210.400541 205.725691 
" clip-path="url(#pcf16ce5833)" style="fill: none; stroke: #b0b0b0; stroke-opacity: 0.18; stroke-width: 0.8; stroke-linecap: square"/>
     </g>
     <g id="line2d_4">
      <defs>
       <path id="m11ae07a0b6" d="M 0 0 
L -3.5 0 
" style="stroke: #000000; stroke-width: 0.8"/>
      </defs>
      <g>
       <use xlink:href="#m11ae07a0b6" x="52.30649" y="205.725691" style="stroke: #000000; stroke-width: 0.8"/>
      </g>
     </g>
     <g id="text_3">
      <!-- 0.000 -->
      <g transform="translate(16.678365 209.52491) scale(0.1 -0.1)">
       <defs>
        <path id="DejaVuSans-30" d="M 2034 4250 
Q 1547 4250 1301 3770 
Q 1056 3291 1056 2328 
Q 1056 1369 1301 889 
Q 1547 409 2034 409 
Q 2525 409 2770 889 
Q 3016 1369 3016 2328 
Q 3016 3291 2770 3770 
Q 2525 4250 2034 4250 
z
M 2034 4750 
Q 2819 4750 3233 4129 
Q 3647 3509 3647 2328 
Q 3647 1150 3233 529 
Q 2819 -91 2034 -91 
Q 1250 -91 836 529 
Q 422 1150 422 2328 
Q 422 3509 836 4129 
Q 1250 4750 2034 4750 
z
" transform="scale(0.015625)"/>
        <path id="DejaVuSans-2e" d="M 684 794 
L 1344 794 
L 1344 0 
L 684 0 
L 684 794 
z
" transform="scale(0.015625)"/>
       </defs>
       <use xlink:href="#DejaVuSans-30"/>
       <use xlink:href="#DejaVuSans-2e" transform="translate(63.623047 0)"/>
       <use xlink:href="#DejaVuSans-30" transform="translate(95.410156 0)"/>
       <use xlink:href="#DejaVuSans-30" transform="translate(159.033203 0)"/>
       <use xlink:href="#DejaVuSans-30" transform="translate(222.65625 0)"/>
      </g>
     </g>
    </g>
    <g id="ytick_2">
     <g id="line2d_5">
      <path d="M 52.30649 163.868199 
L 210.400541 163.868199 
" clip-path="url(#pcf16ce5833)" style="fill: none; stroke: #b0b0b0; stroke-opacity: 0.18; stroke-width: 0.8; stroke-linecap: square"/>
     </g>
     <g id="line2d_6">
      <g>
       <use xlink:href="#m11ae07a0b6" x="52.30649" y="163.868199" style="stroke: #000000; stroke-width: 0.8"/>
      </g>
     </g>
     <g id="text_4">
      <!-- 0.001 -->
      <g transform="translate(16.678365 167.667417) scale(0.1 -0.1)">
       <defs>
        <path id="DejaVuSans-31" d="M 794 531 
L 1825 531 
L 1825 4091 
L 703 3866 
L 703 4441 
L 1819 4666 
L 2450 4666 
L 2450 531 
L 3481 531 
L 3481 0 
L 794 0 
L 794 531 
z
" transform="scale(0.015625)"/>
       </defs>
       <use xlink:href="#DejaVuSans-30"/>
       <use xlink:href="#DejaVuSans-2e" transform="translate(63.623047 0)"/>
       <use xlink:href="#DejaVuSans-30" transform="translate(95.410156 0)"/>
       <use xlink:href="#DejaVuSans-30" transform="translate(159.033203 0)"/>
       <use xlink:href="#DejaVuSans-31" transform="translate(222.65625 0)"/>
      </g>
     </g>
    </g>
    <g id="ytick_3">
     <g id="line2d_7">
      <path d="M 52.30649 122.010706 
L 210.400541 122.010706 
" clip-path="url(#pcf16ce5833)" style="fill: none; stroke: #b0b0b0; stroke-opacity: 0.18; stroke-width: 0.8; stroke-linecap: square"/>
     </g>
     <g id="line2d_8">
      <g>
       <use xlink:href="#m11ae07a0b6" x="52.30649" y="122.010706" style="stroke: #000000; stroke-width: 0.8"/>
      </g>
     </g>
     <g id="text_5">
      <!-- 0.002 -->
      <g transform="translate(16.678365 125.809924) scale(0.1 -0.1)">
       <defs>
        <path id="DejaVuSans-32" d="M 1228 531 
L 3431 531 
L 3431 0 
L 469 0 
L 469 531 
Q 828 903 1448 1529 
Q 2069 2156 2228 2338 
Q 2531 2678 2651 2914 
Q 2772 3150 2772 3378 
Q 2772 3750 2511 3984 
Q 2250 4219 1831 4219 
Q 1534 4219 1204 4116 
Q 875 4013 500 3803 
L 500 4441 
Q 881 4594 1212 4672 
Q 1544 4750 1819 4750 
Q 2544 4750 2975 4387 
Q 3406 4025 3406 3419 
Q 3406 3131 3298 2873 
Q 3191 2616 2906 2266 
Q 2828 2175 2409 1742 
Q 1991 1309 1228 531 
z
" transform="scale(0.015625)"/>
       </defs>
       <use xlink:href="#DejaVuSans-30"/>
       <use xlink:href="#DejaVuSans-2e" transform="translate(63.623047 0)"/>
       <use xlink:href="#DejaVuSans-30" transform="translate(95.410156 0)"/>
       <use xlink:href="#DejaVuSans-30" transform="translate(159.033203 0)"/>
       <use xlink:href="#DejaVuSans-32" transform="translate(222.65625 0)"/>
      </g>
     </g>
    </g>
    <g id="ytick_4">
     <g id="line2d_9">
      <path d="M 52.30649 80.153213 
L 210.400541 80.153213 
" clip-path="url(#pcf16ce5833)" style="fill: none; stroke: #b0b0b0; stroke-opacity: 0.18; stroke-width: 0.8; stroke-linecap: square"/>
     </g>
     <g id="line2d_10">
      <g>
       <use xlink:href="#m11ae07a0b6" x="52.30649" y="80.153213" style="stroke: #000000; stroke-width: 0.8"/>
      </g>
     </g>
     <g id="text_6">
      <!-- 0.003 -->
      <g transform="translate(16.678365 83.952431) scale(0.1 -0.1)">
       <defs>
        <path id="DejaVuSans-33" d="M 2597 2516 
Q 3050 2419 3304 2112 
Q 3559 1806 3559 1356 
Q 3559 666 3084 287 
Q 2609 -91 1734 -91 
Q 1441 -91 1130 -33 
Q 819 25 488 141 
L 488 750 
Q 750 597 1062 519 
Q 1375 441 1716 441 
Q 2309 441 2620 675 
Q 2931 909 2931 1356 
Q 2931 1769 2642 2001 
Q 2353 2234 1838 2234 
L 1294 2234 
L 1294 2753 
L 1863 2753 
Q 2328 2753 2575 2939 
Q 2822 3125 2822 3475 
Q 2822 3834 2567 4026 
Q 2313 4219 1838 4219 
Q 1578 4219 1281 4162 
Q 984 4106 628 3988 
L 628 4550 
Q 988 4650 1302 4700 
Q 1616 4750 1894 4750 
Q 2613 4750 3031 4423 
Q 3450 4097 3450 3541 
Q 3450 3153 3228 2886 
Q 3006 2619 2597 2516 
z
" transform="scale(0.015625)"/>
       </defs>
       <use xlink:href="#DejaVuSans-30"/>
       <use xlink:href="#DejaVuSans-2e" transform="translate(63.623047 0)"/>
       <use xlink:href="#DejaVuSans-30" transform="translate(95.410156 0)"/>
       <use xlink:href="#DejaVuSans-30" transform="translate(159.033203 0)"/>
       <use xlink:href="#DejaVuSans-33" transform="translate(222.65625 0)"/>
      </g>
     </g>
    </g>
    <g id="ytick_5">
     <g id="line2d_11">
      <path d="M 52.30649 38.29572 
L 210.400541 38.29572 
" clip-path="url(#pcf16ce5833)" style="fill: none; stroke: #b0b0b0; stroke-opacity: 0.18; stroke-width: 0.8; stroke-linecap: square"/>
     </g>
     <g id="line2d_12">
      <g>
       <use xlink:href="#m11ae07a0b6" x="52.30649" y="38.29572" style="stroke: #000000; stroke-width: 0.8"/>
      </g>
     </g>
     <g id="text_7">
      <!-- 0.004 -->
      <g transform="translate(16.678365 42.094939) scale(0.1 -0.1)">
       <defs>
        <path id="DejaVuSans-34" d="M 2419 4116 
L 825 1625 
L 2419 1625 
L 2419 4116 
z
M 2253 4666 
L 3047 4666 
L 3047 1625 
L 3713 1625 
L 3713 1100 
L 3047 1100 
L 3047 0 
L 2419 0 
L 2419 1100 
L 313 1100 
L 313 1709 
L 2253 4666 
z
" transform="scale(0.015625)"/>
       </defs>
       <use xlink:href="#DejaVuSans-30"/>
       <use xlink:href="#DejaVuSans-2e" transform="translate(63.623047 0)"/>
       <use xlink:href="#DejaVuSans-30" transform="translate(95.410156 0)"/>
       <use xlink:href="#DejaVuSans-30" transform="translate(159.033203 0)"/>
       <use xlink:href="#DejaVuSans-34" transform="translate(222.65625 0)"/>
      </g>
     </g>
    </g>
    <g id="text_8">
     <!-- $E/N-E_{ED}/N$ -->
     <g transform="translate(10.598677 161.609865) rotate(-90) scale(0.1 -0.1)">
      <defs>
       <path id="DejaVuSans-Oblique-45" d="M 1081 4666 
L 4031 4666 
L 3928 4134 
L 1606 4134 
L 1338 2753 
L 3566 2753 
L 3463 2222 
L 1234 2222 
L 909 531 
L 3284 531 
L 3181 0 
L 172 0 
L 1081 4666 
z
" transform="scale(0.015625)"/>
       <path id="DejaVuSans-Oblique-4e" d="M 1081 4666 
L 1931 4666 
L 3219 666 
L 4000 4666 
L 4616 4666 
L 3706 0 
L 2853 0 
L 1569 4025 
L 788 0 
L 172 0 
L 1081 4666 
z
" transform="scale(0.015625)"/>
       <path id="DejaVuSans-2212" d="M 678 2272 
L 4684 2272 
L 4684 1741 
L 678 1741 
L 678 2272 
z
" transform="scale(0.015625)"/>
       <path id="DejaVuSans-Oblique-44" d="M 1081 4666 
L 2438 4666 
Q 3519 4666 4070 4208 
Q 4622 3750 4622 2847 
Q 4622 2250 4412 1698 
Q 4203 1147 3834 769 
Q 3463 381 2891 190 
Q 2319 0 1538 0 
L 172 0 
L 1081 4666 
z
M 1613 4147 
L 909 519 
L 1734 519 
Q 2794 519 3375 1128 
Q 3956 1738 3956 2847 
Q 3956 3519 3581 3833 
Q 3206 4147 2406 4147 
L 1613 4147 
z
" transform="scale(0.015625)"/>
      </defs>
      <use xlink:href="#DejaVuSans-Oblique-45" transform="translate(0 0.09375)"/>
      <use xlink:href="#DejaVuSans-2f" transform="translate(63.183594 0.09375)"/>
      <use xlink:href="#DejaVuSans-Oblique-4e" transform="translate(96.875 0.09375)"/>
      <use xlink:href="#DejaVuSans-2212" transform="translate(191.162109 0.09375)"/>
      <use xlink:href="#DejaVuSans-Oblique-45" transform="translate(294.433594 0.09375)"/>
      <use xlink:href="#DejaVuSans-Oblique-45" transform="translate(357.617188 -16.3125) scale(0.7)"/>
      <use xlink:href="#DejaVuSans-Oblique-44" transform="translate(401.845703 -16.3125) scale(0.7)"/>
      <use xlink:href="#DejaVuSans-2f" transform="translate(458.481445 0.09375)"/>
      <use xlink:href="#DejaVuSans-Oblique-4e" transform="translate(492.172852 0.09375)"/>
     </g>
    </g>
   </g>
   <g id="line2d_13">
    <path d="M 52.30649 205.725691 
L 210.400541 205.725691 
" clip-path="url(#pcf16ce5833)" style="fill: none; stroke-dasharray: 3.7,1.6; stroke-dashoffset: 0; stroke: #000000"/>
   </g>
   <g id="LineCollection_1">
    <path d="M 91.830003 223.31602 
L 91.830003 173.818654 
" clip-path="url(#pcf16ce5833)" style="fill: none; stroke: #0072b2; stroke-width: 1.5"/>
   </g>
   <g id="line2d_14">
    <defs>
     <path id="m8474f11ac4" d="M 5 0 
L -5 -0 
" style="stroke: #0072b2"/>
    </defs>
    <g clip-path="url(#pcf16ce5833)">
     <use xlink:href="#m8474f11ac4" x="91.830003" y="223.31602" style="fill: #0072b2; stroke: #0072b2"/>
    </g>
   </g>
   <g id="line2d_15">
    <g clip-path="url(#pcf16ce5833)">
     <use xlink:href="#m8474f11ac4" x="91.830003" y="173.818654" style="fill: #0072b2; stroke: #0072b2"/>
    </g>
   </g>
   <g id="LineCollection_2">
    <path d="M 170.877028 156.873535 
L 170.877028 43.20371 
" clip-path="url(#pcf16ce5833)" style="fill: none; stroke: #d55e00; stroke-width: 1.5"/>
   </g>
   <g id="line2d_16">
    <defs>
     <path id="me3ce7d4959" d="M 5 0 
L -5 -0 
" style="stroke: #d55e00"/>
    </defs>
    <g clip-path="url(#pcf16ce5833)">
     <use xlink:href="#me3ce7d4959" x="170.877028" y="156.873535" style="fill: #d55e00; stroke: #d55e00"/>
    </g>
   </g>
   <g id="line2d_17">
    <g clip-path="url(#pcf16ce5833)">
     <use xlink:href="#me3ce7d4959" x="170.877028" y="43.20371" style="fill: #d55e00; stroke: #d55e00"/>
    </g>
   </g>
   <g id="line2d_18">
    <defs>
     <path id="ma4533a9e89" d="M 0 3 
C 0.795609 3 1.55874 2.683901 2.12132 2.12132 
C 2.683901 1.55874 3 0.795609 3 0 
C 3 -0.795609 2.683901 -1.55874 2.12132 -2.12132 
C 1.55874 -2.683901 0.795609 -3 0 -3 
C -0.795609 -3 -1.55874 -2.683901 -2.12132 -2.12132 
C -2.683901 -1.55874 -3 -0.795609 -3 0 
C -3 0.795609 -2.683901 1.55874 -2.12132 2.12132 
C -1.55874 2.683901 -0.795609 3 0 3 
z
" style="stroke: #0072b2"/>
    </defs>
    <g clip-path="url(#pcf16ce5833)">
     <use xlink:href="#ma4533a9e89" x="91.830003" y="198.567337" style="fill: #0072b2; stroke: #0072b2"/>
    </g>
   </g>
   <g id="line2d_19">
    <defs>
     <path id="m08c74095b8" d="M 0 3 
C 0.795609 3 1.55874 2.683901 2.12132 2.12132 
C 2.683901 1.55874 3 0.795609 3 0 
C 3 -0.795609 2.683901 -1.55874 2.12132 -2.12132 
C 1.55874 -2.683901 0.795609 -3 0 -3 
C -0.795609 -3 -1.55874 -2.683901 -2.12132 -2.12132 
C -2.683901 -1.55874 -3 -0.795609 -3 0 
C -3 0.795609 -2.683901 1.55874 -2.12132 2.12132 
C -1.55874 2.683901 -0.795609 3 0 3 
z
" style="stroke: #d55e00"/>
    </defs>
    <g clip-path="url(#pcf16ce5833)">
     <use xlink:href="#m08c74095b8" x="170.877028" y="100.038623" style="fill: #d55e00; stroke: #d55e00"/>
    </g>
   </g>
   <g id="patch_3">
    <path d="M 52.30649 232.321635 
L 52.30649 34.198095 
" style="fill: none; stroke: #000000; stroke-width: 0.8; stroke-linejoin: miter; stroke-linecap: square"/>
   </g>
   <g id="patch_4">
    <path d="M 210.400541 232.321635 
L 210.400541 34.198095 
" style="fill: none; stroke: #000000; stroke-width: 0.8; stroke-linejoin: miter; stroke-linecap: square"/>
   </g>
   <g id="patch_5">
    <path d="M 52.30649 232.321635 
L 210.400541 232.321635 
" style="fill: none; stroke: #000000; stroke-width: 0.8; stroke-linejoin: miter; stroke-linecap: square"/>
   </g>
   <g id="patch_6">
    <path d="M 52.30649 34.198095 
L 210.400541 34.198095 
" style="fill: none; stroke: #000000; stroke-width: 0.8; stroke-linejoin: miter; stroke-linecap: square"/>
   </g>
  </g>
  <g id="axes_2">
   <g id="patch_7">
    <path d="M 272.069771 232.321635 
L 430.163823 232.321635 
L 430.163823 34.198095 
L 272.069771 34.198095 
z
" style="fill: #ffffff"/>
   </g>
   <g id="matplotlib.axis_3">
    <g id="xtick_3">
     <g id="line2d_20">
      <g>
       <use xlink:href="#m90b7a62028" x="311.593284" y="232.321635" style="stroke: #000000; stroke-width: 0.8"/>
      </g>
     </g>
     <g id="text_9">
      <!-- AP/P -->
      <g transform="translate(300.458909 246.920073) scale(0.1 -0.1)">
       <use xlink:href="#DejaVuSans-41"/>
       <use xlink:href="#DejaVuSans-50" transform="translate(68.408203 0)"/>
       <use xlink:href="#DejaVuSans-2f" transform="translate(128.710938 0)"/>
       <use xlink:href="#DejaVuSans-50" transform="translate(162.402344 0)"/>
      </g>
     </g>
    </g>
    <g id="xtick_4">
     <g id="line2d_21">
      <g>
       <use xlink:href="#m90b7a62028" x="390.64031" y="232.321635" style="stroke: #000000; stroke-width: 0.8"/>
      </g>
     </g>
     <g id="text_10">
      <!-- P/P -->
      <g transform="translate(382.926247 246.920073) scale(0.1 -0.1)">
       <use xlink:href="#DejaVuSans-50"/>
       <use xlink:href="#DejaVuSans-2f" transform="translate(60.302734 0)"/>
       <use xlink:href="#DejaVuSans-50" transform="translate(93.994141 0)"/>
      </g>
     </g>
    </g>
   </g>
   <g id="matplotlib.axis_4">
    <g id="ytick_6">
     <g id="line2d_22">
      <path d="M 272.069771 190.13631 
L 430.163823 190.13631 
" clip-path="url(#p5a22620819)" style="fill: none; stroke: #b0b0b0; stroke-opacity: 0.18; stroke-width: 0.8; stroke-linecap: square"/>
     </g>
     <g id="line2d_23">
      <g>
       <use xlink:href="#m11ae07a0b6" x="272.069771" y="190.13631" style="stroke: #000000; stroke-width: 0.8"/>
      </g>
     </g>
     <g id="text_11">
      <!-- 0.0000 -->
      <g transform="translate(230.079146 193.935529) scale(0.1 -0.1)">
       <use xlink:href="#DejaVuSans-30"/>
       <use xlink:href="#DejaVuSans-2e" transform="translate(63.623047 0)"/>
       <use xlink:href="#DejaVuSans-30" transform="translate(95.410156 0)"/>
       <use xlink:href="#DejaVuSans-30" transform="translate(159.033203 0)"/>
       <use xlink:href="#DejaVuSans-30" transform="translate(222.65625 0)"/>
       <use xlink:href="#DejaVuSans-30" transform="translate(286.279297 0)"/>
      </g>
     </g>
    </g>
    <g id="ytick_7">
     <g id="line2d_24">
      <path d="M 272.069771 146.348931 
L 430.163823 146.348931 
" clip-path="url(#p5a22620819)" style="fill: none; stroke: #b0b0b0; stroke-opacity: 0.18; stroke-width: 0.8; stroke-linecap: square"/>
     </g>
     <g id="line2d_25">
      <g>
       <use xlink:href="#m11ae07a0b6" x="272.069771" y="146.348931" style="stroke: #000000; stroke-width: 0.8"/>
      </g>
     </g>
     <g id="text_12">
      <!-- 0.0002 -->
      <g transform="translate(230.079146 150.14815) scale(0.1 -0.1)">
       <use xlink:href="#DejaVuSans-30"/>
       <use xlink:href="#DejaVuSans-2e" transform="translate(63.623047 0)"/>
       <use xlink:href="#DejaVuSans-30" transform="translate(95.410156 0)"/>
       <use xlink:href="#DejaVuSans-30" transform="translate(159.033203 0)"/>
       <use xlink:href="#DejaVuSans-30" transform="translate(222.65625 0)"/>
       <use xlink:href="#DejaVuSans-32" transform="translate(286.279297 0)"/>
      </g>
     </g>
    </g>
    <g id="ytick_8">
     <g id="line2d_26">
      <path d="M 272.069771 102.561553 
L 430.163823 102.561553 
" clip-path="url(#p5a22620819)" style="fill: none; stroke: #b0b0b0; stroke-opacity: 0.18; stroke-width: 0.8; stroke-linecap: square"/>
     </g>
     <g id="line2d_27">
      <g>
       <use xlink:href="#m11ae07a0b6" x="272.069771" y="102.561553" style="stroke: #000000; stroke-width: 0.8"/>
      </g>
     </g>
     <g id="text_13">
      <!-- 0.0004 -->
      <g transform="translate(230.079146 106.360772) scale(0.1 -0.1)">
       <use xlink:href="#DejaVuSans-30"/>
       <use xlink:href="#DejaVuSans-2e" transform="translate(63.623047 0)"/>
       <use xlink:href="#DejaVuSans-30" transform="translate(95.410156 0)"/>
       <use xlink:href="#DejaVuSans-30" transform="translate(159.033203 0)"/>
       <use xlink:href="#DejaVuSans-30" transform="translate(222.65625 0)"/>
       <use xlink:href="#DejaVuSans-34" transform="translate(286.279297 0)"/>
      </g>
     </g>
    </g>
    <g id="ytick_9">
     <g id="line2d_28">
      <path d="M 272.069771 58.774174 
L 430.163823 58.774174 
" clip-path="url(#p5a22620819)" style="fill: none; stroke: #b0b0b0; stroke-opacity: 0.18; stroke-width: 0.8; stroke-linecap: square"/>
     </g>
     <g id="line2d_29">
      <g>
       <use xlink:href="#m11ae07a0b6" x="272.069771" y="58.774174" style="stroke: #000000; stroke-width: 0.8"/>
      </g>
     </g>
     <g id="text_14">
      <!-- 0.0006 -->
      <g transform="translate(230.079146 62.573393) scale(0.1 -0.1)">
       <defs>
        <path id="DejaVuSans-36" d="M 2113 2584 
Q 1688 2584 1439 2293 
Q 1191 2003 1191 1497 
Q 1191 994 1439 701 
Q 1688 409 2113 409 
Q 2538 409 2786 701 
Q 3034 994 3034 1497 
Q 3034 2003 2786 2293 
Q 2538 2584 2113 2584 
z
M 3366 4563 
L 3366 3988 
Q 3128 4100 2886 4159 
Q 2644 4219 2406 4219 
Q 1781 4219 1451 3797 
Q 1122 3375 1075 2522 
Q 1259 2794 1537 2939 
Q 1816 3084 2150 3084 
Q 2853 3084 3261 2657 
Q 3669 2231 3669 1497 
Q 3669 778 3244 343 
Q 2819 -91 2113 -91 
Q 1303 -91 875 529 
Q 447 1150 447 2328 
Q 447 3434 972 4092 
Q 1497 4750 2381 4750 
Q 2619 4750 2861 4703 
Q 3103 4656 3366 4563 
z
" transform="scale(0.015625)"/>
       </defs>
       <use xlink:href="#DejaVuSans-30"/>
       <use xlink:href="#DejaVuSans-2e" transform="translate(63.623047 0)"/>
       <use xlink:href="#DejaVuSans-30" transform="translate(95.410156 0)"/>
       <use xlink:href="#DejaVuSans-30" transform="translate(159.033203 0)"/>
       <use xlink:href="#DejaVuSans-30" transform="translate(222.65625 0)"/>
       <use xlink:href="#DejaVuSans-36" transform="translate(286.279297 0)"/>
      </g>
     </g>
    </g>
    <g id="text_15">
     <!-- $D-D_{ED}$ -->
     <g transform="translate(223.999459 152.159865) rotate(-90) scale(0.1 -0.1)">
      <use xlink:href="#DejaVuSans-Oblique-44" transform="translate(0 0.09375)"/>
      <use xlink:href="#DejaVuSans-2212" transform="translate(96.484375 0.09375)"/>
      <use xlink:href="#DejaVuSans-Oblique-44" transform="translate(199.755859 0.09375)"/>
      <use xlink:href="#DejaVuSans-Oblique-45" transform="translate(276.757812 -16.3125) scale(0.7)"/>
      <use xlink:href="#DejaVuSans-Oblique-44" transform="translate(320.986328 -16.3125) scale(0.7)"/>
     </g>
    </g>
   </g>
   <g id="line2d_30">
    <path d="M 272.069771 190.13631 
L 430.163823 190.13631 
" clip-path="url(#p5a22620819)" style="fill: none; stroke-dasharray: 3.7,1.6; stroke-dashoffset: 0; stroke: #000000"/>
   </g>
   <g id="LineCollection_3">
    <path d="M 311.593284 223.31602 
L 311.593284 179.547969 
" clip-path="url(#p5a22620819)" style="fill: none; stroke: #0072b2; stroke-width: 1.5"/>
   </g>
   <g id="line2d_31">
    <g clip-path="url(#p5a22620819)">
     <use xlink:href="#m8474f11ac4" x="311.593284" y="223.31602" style="fill: #0072b2; stroke: #0072b2"/>
    </g>
   </g>
   <g id="line2d_32">
    <g clip-path="url(#p5a22620819)">
     <use xlink:href="#m8474f11ac4" x="311.593284" y="179.547969" style="fill: #0072b2; stroke: #0072b2"/>
    </g>
   </g>
   <g id="LineCollection_4">
    <path d="M 390.64031 117.344131 
L 390.64031 43.20371 
" clip-path="url(#p5a22620819)" style="fill: none; stroke: #d55e00; stroke-width: 1.5"/>
   </g>
   <g id="line2d_33">
    <g clip-path="url(#p5a22620819)">
     <use xlink:href="#me3ce7d4959" x="390.64031" y="117.344131" style="fill: #d55e00; stroke: #d55e00"/>
    </g>
   </g>
   <g id="line2d_34">
    <g clip-path="url(#p5a22620819)">
     <use xlink:href="#me3ce7d4959" x="390.64031" y="43.20371" style="fill: #d55e00; stroke: #d55e00"/>
    </g>
   </g>
   <g id="line2d_35">
    <g clip-path="url(#p5a22620819)">
     <use xlink:href="#ma4533a9e89" x="311.593284" y="201.431994" style="fill: #0072b2; stroke: #0072b2"/>
    </g>
   </g>
   <g id="line2d_36">
    <g clip-path="url(#p5a22620819)">
     <use xlink:href="#m08c74095b8" x="390.64031" y="80.273921" style="fill: #d55e00; stroke: #d55e00"/>
    </g>
   </g>
   <g id="patch_8">
    <path d="M 272.069771 232.321635 
L 272.069771 34.198095 
" style="fill: none; stroke: #000000; stroke-width: 0.8; stroke-linejoin: miter; stroke-linecap: square"/>
   </g>
   <g id="patch_9">
    <path d="M 430.163823 232.321635 
L 430.163823 34.198095 
" style="fill: none; stroke: #000000; stroke-width: 0.8; stroke-linejoin: miter; stroke-linecap: square"/>
   </g>
   <g id="patch_10">
    <path d="M 272.069771 232.321635 
L 430.163823 232.321635 
" style="fill: none; stroke: #000000; stroke-width: 0.8; stroke-linejoin: miter; stroke-linecap: square"/>
   </g>
   <g id="patch_11">
    <path d="M 272.069771 34.198095 
L 430.163823 34.198095 
" style="fill: none; stroke: #000000; stroke-width: 0.8; stroke-linejoin: miter; stroke-linecap: square"/>
   </g>
  </g>
  <g id="axes_3">
   <g id="patch_12">
    <path d="M 487.48774 232.321635 
L 645.581791 232.321635 
L 645.581791 34.198095 
L 487.48774 34.198095 
z
" style="fill: #ffffff"/>
   </g>
   <g id="matplotlib.axis_5">
    <g id="xtick_5">
     <g id="line2d_37">
      <g>
       <use xlink:href="#m90b7a62028" x="527.011253" y="232.321635" style="stroke: #000000; stroke-width: 0.8"/>
      </g>
     </g>
     <g id="text_16">
      <!-- AP/P -->
      <g transform="translate(515.876878 246.920073) scale(0.1 -0.1)">
       <use xlink:href="#DejaVuSans-41"/>
       <use xlink:href="#DejaVuSans-50" transform="translate(68.408203 0)"/>
       <use xlink:href="#DejaVuSans-2f" transform="translate(128.710938 0)"/>
       <use xlink:href="#DejaVuSans-50" transform="translate(162.402344 0)"/>
      </g>
     </g>
    </g>
    <g id="xtick_6">
     <g id="line2d_38">
      <g>
       <use xlink:href="#m90b7a62028" x="606.058278" y="232.321635" style="stroke: #000000; stroke-width: 0.8"/>
      </g>
     </g>
     <g id="text_17">
      <!-- P/P -->
      <g transform="translate(598.344216 246.920073) scale(0.1 -0.1)">
       <use xlink:href="#DejaVuSans-50"/>
       <use xlink:href="#DejaVuSans-2f" transform="translate(60.302734 0)"/>
       <use xlink:href="#DejaVuSans-50" transform="translate(93.994141 0)"/>
      </g>
     </g>
    </g>
   </g>
   <g id="matplotlib.axis_6">
    <g id="ytick_10">
     <g id="line2d_39">
      <path d="M 487.48774 210.548447 
L 645.581791 210.548447 
" clip-path="url(#p5999651368)" style="fill: none; stroke: #b0b0b0; stroke-opacity: 0.18; stroke-width: 0.8; stroke-linecap: square"/>
     </g>
     <g id="line2d_40">
      <g>
       <use xlink:href="#m11ae07a0b6" x="487.48774" y="210.548447" style="stroke: #000000; stroke-width: 0.8"/>
      </g>
     </g>
     <g id="text_18">
      <!-- −0.07 -->
      <g transform="translate(449.842428 214.347665) scale(0.1 -0.1)">
       <defs>
        <path id="DejaVuSans-37" d="M 525 4666 
L 3525 4666 
L 3525 4397 
L 1831 0 
L 1172 0 
L 2766 4134 
L 525 4134 
L 525 4666 
z
" transform="scale(0.015625)"/>
       </defs>
       <use xlink:href="#DejaVuSans-2212"/>
       <use xlink:href="#DejaVuSans-30" transform="translate(83.789062 0)"/>
       <use xlink:href="#DejaVuSans-2e" transform="translate(147.412109 0)"/>
       <use xlink:href="#DejaVuSans-30" transform="translate(179.199219 0)"/>
       <use xlink:href="#DejaVuSans-37" transform="translate(242.822266 0)"/>
      </g>
     </g>
    </g>
    <g id="ytick_11">
     <g id="line2d_41">
      <path d="M 487.48774 186.642056 
L 645.581791 186.642056 
" clip-path="url(#p5999651368)" style="fill: none; stroke: #b0b0b0; stroke-opacity: 0.18; stroke-width: 0.8; stroke-linecap: square"/>
     </g>
     <g id="line2d_42">
      <g>
       <use xlink:href="#m11ae07a0b6" x="487.48774" y="186.642056" style="stroke: #000000; stroke-width: 0.8"/>
      </g>
     </g>
     <g id="text_19">
      <!-- −0.06 -->
      <g transform="translate(449.842428 190.441274) scale(0.1 -0.1)">
       <use xlink:href="#DejaVuSans-2212"/>
       <use xlink:href="#DejaVuSans-30" transform="translate(83.789062 0)"/>
       <use xlink:href="#DejaVuSans-2e" transform="translate(147.412109 0)"/>
       <use xlink:href="#DejaVuSans-30" transform="translate(179.199219 0)"/>
       <use xlink:href="#DejaVuSans-36" transform="translate(242.822266 0)"/>
      </g>
     </g>
    </g>
    <g id="ytick_12">
     <g id="line2d_43">
      <path d="M 487.48774 162.735665 
L 645.581791 162.735665 
" clip-path="url(#p5999651368)" style="fill: none; stroke: #b0b0b0; stroke-opacity: 0.18; stroke-width: 0.8; stroke-linecap: square"/>
     </g>
     <g id="line2d_44">
      <g>
       <use xlink:href="#m11ae07a0b6" x="487.48774" y="162.735665" style="stroke: #000000; stroke-width: 0.8"/>
      </g>
     </g>
     <g id="text_20">
      <!-- −0.05 -->
      <g transform="translate(449.842428 166.534884) scale(0.1 -0.1)">
       <defs>
        <path id="DejaVuSans-35" d="M 691 4666 
L 3169 4666 
L 3169 4134 
L 1269 4134 
L 1269 2991 
Q 1406 3038 1543 3061 
Q 1681 3084 1819 3084 
Q 2600 3084 3056 2656 
Q 3513 2228 3513 1497 
Q 3513 744 3044 326 
Q 2575 -91 1722 -91 
Q 1428 -91 1123 -41 
Q 819 9 494 109 
L 494 744 
Q 775 591 1075 516 
Q 1375 441 1709 441 
Q 2250 441 2565 725 
Q 2881 1009 2881 1497 
Q 2881 1984 2565 2268 
Q 2250 2553 1709 2553 
Q 1456 2553 1204 2497 
Q 953 2441 691 2322 
L 691 4666 
z
" transform="scale(0.015625)"/>
       </defs>
       <use xlink:href="#DejaVuSans-2212"/>
       <use xlink:href="#DejaVuSans-30" transform="translate(83.789062 0)"/>
       <use xlink:href="#DejaVuSans-2e" transform="translate(147.412109 0)"/>
       <use xlink:href="#DejaVuSans-30" transform="translate(179.199219 0)"/>
       <use xlink:href="#DejaVuSans-35" transform="translate(242.822266 0)"/>
      </g>
     </g>
    </g>
    <g id="ytick_13">
     <g id="line2d_45">
      <path d="M 487.48774 138.829274 
L 645.581791 138.829274 
" clip-path="url(#p5999651368)" style="fill: none; stroke: #b0b0b0; stroke-opacity: 0.18; stroke-width: 0.8; stroke-linecap: square"/>
     </g>
     <g id="line2d_46">
      <g>
       <use xlink:href="#m11ae07a0b6" x="487.48774" y="138.829274" style="stroke: #000000; stroke-width: 0.8"/>
      </g>
     </g>
     <g id="text_21">
      <!-- −0.04 -->
      <g transform="translate(449.842428 142.628493) scale(0.1 -0.1)">
       <use xlink:href="#DejaVuSans-2212"/>
       <use xlink:href="#DejaVuSans-30" transform="translate(83.789062 0)"/>
       <use xlink:href="#DejaVuSans-2e" transform="translate(147.412109 0)"/>
       <use xlink:href="#DejaVuSans-30" transform="translate(179.199219 0)"/>
       <use xlink:href="#DejaVuSans-34" transform="translate(242.822266 0)"/>
      </g>
     </g>
    </g>
    <g id="ytick_14">
     <g id="line2d_47">
      <path d="M 487.48774 114.922883 
L 645.581791 114.922883 
" clip-path="url(#p5999651368)" style="fill: none; stroke: #b0b0b0; stroke-opacity: 0.18; stroke-width: 0.8; stroke-linecap: square"/>
     </g>
     <g id="line2d_48">
      <g>
       <use xlink:href="#m11ae07a0b6" x="487.48774" y="114.922883" style="stroke: #000000; stroke-width: 0.8"/>
      </g>
     </g>
     <g id="text_22">
      <!-- −0.03 -->
      <g transform="translate(449.842428 118.722102) scale(0.1 -0.1)">
       <use xlink:href="#DejaVuSans-2212"/>
       <use xlink:href="#DejaVuSans-30" transform="translate(83.789062 0)"/>
       <use xlink:href="#DejaVuSans-2e" transform="translate(147.412109 0)"/>
       <use xlink:href="#DejaVuSans-30" transform="translate(179.199219 0)"/>
       <use xlink:href="#DejaVuSans-33" transform="translate(242.822266 0)"/>
      </g>
     </g>
    </g>
    <g id="ytick_15">
     <g id="line2d_49">
      <path d="M 487.48774 91.016492 
L 645.581791 91.016492 
" clip-path="url(#p5999651368)" style="fill: none; stroke: #b0b0b0; stroke-opacity: 0.18; stroke-width: 0.8; stroke-linecap: square"/>
     </g>
     <g id="line2d_50">
      <g>
       <use xlink:href="#m11ae07a0b6" x="487.48774" y="91.016492" style="stroke: #000000; stroke-width: 0.8"/>
      </g>
     </g>
     <g id="text_23">
      <!-- −0.02 -->
      <g transform="translate(449.842428 94.815711) scale(0.1 -0.1)">
       <use xlink:href="#DejaVuSans-2212"/>
       <use xlink:href="#DejaVuSans-30" transform="translate(83.789062 0)"/>
       <use xlink:href="#DejaVuSans-2e" transform="translate(147.412109 0)"/>
       <use xlink:href="#DejaVuSans-30" transform="translate(179.199219 0)"/>
       <use xlink:href="#DejaVuSans-32" transform="translate(242.822266 0)"/>
      </g>
     </g>
    </g>
    <g id="ytick_16">
     <g id="line2d_51">
      <path d="M 487.48774 67.110101 
L 645.581791 67.110101 
" clip-path="url(#p5999651368)" style="fill: none; stroke: #b0b0b0; stroke-opacity: 0.18; stroke-width: 0.8; stroke-linecap: square"/>
     </g>
     <g id="line2d_52">
      <g>
       <use xlink:href="#m11ae07a0b6" x="487.48774" y="67.110101" style="stroke: #000000; stroke-width: 0.8"/>
      </g>
     </g>
     <g id="text_24">
      <!-- −0.01 -->
      <g transform="translate(449.842428 70.90932) scale(0.1 -0.1)">
       <use xlink:href="#DejaVuSans-2212"/>
       <use xlink:href="#DejaVuSans-30" transform="translate(83.789062 0)"/>
       <use xlink:href="#DejaVuSans-2e" transform="translate(147.412109 0)"/>
       <use xlink:href="#DejaVuSans-30" transform="translate(179.199219 0)"/>
       <use xlink:href="#DejaVuSans-31" transform="translate(242.822266 0)"/>
      </g>
     </g>
    </g>
    <g id="ytick_17">
     <g id="line2d_53">
      <path d="M 487.48774 43.20371 
L 645.581791 43.20371 
" clip-path="url(#p5999651368)" style="fill: none; stroke: #b0b0b0; stroke-opacity: 0.18; stroke-width: 0.8; stroke-linecap: square"/>
     </g>
     <g id="line2d_54">
      <g>
       <use xlink:href="#m11ae07a0b6" x="487.48774" y="43.20371" style="stroke: #000000; stroke-width: 0.8"/>
      </g>
     </g>
     <g id="text_25">
      <!-- 0.00 -->
      <g transform="translate(458.222115 47.002929) scale(0.1 -0.1)">
       <use xlink:href="#DejaVuSans-30"/>
       <use xlink:href="#DejaVuSans-2e" transform="translate(63.623047 0)"/>
       <use xlink:href="#DejaVuSans-30" transform="translate(95.410156 0)"/>
       <use xlink:href="#DejaVuSans-30" transform="translate(159.033203 0)"/>
      </g>
     </g>
    </g>
    <g id="text_26">
     <!-- $S(Q)-S_{ED}(Q)$ -->
     <g transform="translate(443.76274 166.509865) rotate(-90) scale(0.1 -0.1)">
      <defs>
       <path id="DejaVuSans-Oblique-53" d="M 3859 4513 
L 3738 3897 
Q 3422 4066 3111 4152 
Q 2800 4238 2509 4238 
Q 1944 4238 1609 3991 
Q 1275 3744 1275 3334 
Q 1275 3109 1398 2989 
Q 1522 2869 2034 2731 
L 2413 2638 
Q 3053 2472 3303 2217 
Q 3553 1963 3553 1503 
Q 3553 797 2998 353 
Q 2444 -91 1538 -91 
Q 1166 -91 791 -17 
Q 416 56 38 206 
L 166 856 
Q 513 641 861 531 
Q 1209 422 1556 422 
Q 2147 422 2503 684 
Q 2859 947 2859 1369 
Q 2859 1650 2717 1795 
Q 2575 1941 2106 2059 
L 1728 2156 
Q 1081 2325 845 2545 
Q 609 2766 609 3163 
Q 609 3859 1145 4304 
Q 1681 4750 2541 4750 
Q 2875 4750 3203 4690 
Q 3531 4631 3859 4513 
z
" transform="scale(0.015625)"/>
       <path id="DejaVuSans-28" d="M 1984 4856 
Q 1566 4138 1362 3434 
Q 1159 2731 1159 2009 
Q 1159 1288 1364 580 
Q 1569 -128 1984 -844 
L 1484 -844 
Q 1016 -109 783 600 
Q 550 1309 550 2009 
Q 550 2706 781 3412 
Q 1013 4119 1484 4856 
L 1984 4856 
z
" transform="scale(0.015625)"/>
       <path id="DejaVuSans-Oblique-51" d="M 2309 -84 
Q 2275 -88 2237 -89 
Q 2200 -91 2125 -91 
Q 1250 -91 756 411 
Q 263 913 263 1797 
Q 263 2319 452 2844 
Q 641 3369 978 3788 
Q 1369 4269 1858 4509 
Q 2347 4750 2938 4750 
Q 3794 4750 4287 4245 
Q 4781 3741 4781 2869 
Q 4781 1928 4265 1147 
Q 3750 366 2919 44 
L 3553 -825 
L 2847 -825 
L 2309 -84 
z
M 2919 4238 
Q 2400 4238 2003 3986 
Q 1606 3734 1313 3219 
Q 1125 2891 1026 2522 
Q 928 2153 928 1778 
Q 928 1128 1239 775 
Q 1550 422 2119 422 
Q 2631 422 3032 676 
Q 3434 931 3719 1434 
Q 3909 1772 4009 2142 
Q 4109 2513 4109 2881 
Q 4109 3528 3796 3883 
Q 3484 4238 2919 4238 
z
" transform="scale(0.015625)"/>
       <path id="DejaVuSans-29" d="M 513 4856 
L 1013 4856 
Q 1481 4119 1714 3412 
Q 1947 2706 1947 2009 
Q 1947 1309 1714 600 
Q 1481 -109 1013 -844 
L 513 -844 
Q 928 -128 1133 580 
Q 1338 1288 1338 2009 
Q 1338 2731 1133 3434 
Q 928 4138 513 4856 
z
" transform="scale(0.015625)"/>
      </defs>
      <use xlink:href="#DejaVuSans-Oblique-53" transform="translate(0 0.125)"/>
      <use xlink:href="#DejaVuSans-28" transform="translate(63.476562 0.125)"/>
      <use xlink:href="#DejaVuSans-Oblique-51" transform="translate(102.490234 0.125)"/>
      <use xlink:href="#DejaVuSans-29" transform="translate(181.201172 0.125)"/>
      <use xlink:href="#DejaVuSans-2212" transform="translate(239.697266 0.125)"/>
      <use xlink:href="#DejaVuSans-Oblique-53" transform="translate(342.96875 0.125)"/>
      <use xlink:href="#DejaVuSans-Oblique-45" transform="translate(406.445312 -16.28125) scale(0.7)"/>
      <use xlink:href="#DejaVuSans-Oblique-44" transform="translate(450.673828 -16.28125) scale(0.7)"/>
      <use xlink:href="#DejaVuSans-28" transform="translate(507.30957 0.125)"/>
      <use xlink:href="#DejaVuSans-Oblique-51" transform="translate(546.323242 0.125)"/>
      <use xlink:href="#DejaVuSans-29" transform="translate(625.03418 0.125)"/>
     </g>
    </g>
   </g>
   <g id="line2d_55">
    <path d="M 487.48774 43.20371 
L 645.581791 43.20371 
" clip-path="url(#p5999651368)" style="fill: none; stroke-dasharray: 3.7,1.6; stroke-dashoffset: 0; stroke: #000000"/>
   </g>
   <g id="LineCollection_5">
    <path d="M 527.011253 79.609117 
L 527.011253 64.196622 
" clip-path="url(#p5999651368)" style="fill: none; stroke: #0072b2; stroke-width: 1.5"/>
   </g>
   <g id="line2d_56">
    <g clip-path="url(#p5999651368)">
     <use xlink:href="#m8474f11ac4" x="527.011253" y="79.609117" style="fill: #0072b2; stroke: #0072b2"/>
    </g>
   </g>
   <g id="line2d_57">
    <g clip-path="url(#p5999651368)">
     <use xlink:href="#m8474f11ac4" x="527.011253" y="64.196622" style="fill: #0072b2; stroke: #0072b2"/>
    </g>
   </g>
   <g id="LineCollection_6">
    <path d="M 606.058278 223.31602 
L 606.058278 132.841339 
" clip-path="url(#p5999651368)" style="fill: none; stroke: #d55e00; stroke-width: 1.5"/>
   </g>
   <g id="line2d_58">
    <g clip-path="url(#p5999651368)">
     <use xlink:href="#me3ce7d4959" x="606.058278" y="223.31602" style="fill: #d55e00; stroke: #d55e00"/>
    </g>
   </g>
   <g id="line2d_59">
    <g clip-path="url(#p5999651368)">
     <use xlink:href="#me3ce7d4959" x="606.058278" y="132.841339" style="fill: #d55e00; stroke: #d55e00"/>
    </g>
   </g>
   <g id="line2d_60">
    <g clip-path="url(#p5999651368)">
     <use xlink:href="#ma4533a9e89" x="527.011253" y="71.90287" style="fill: #0072b2; stroke: #0072b2"/>
    </g>
   </g>
   <g id="line2d_61">
    <g clip-path="url(#p5999651368)">
     <use xlink:href="#m08c74095b8" x="606.058278" y="178.078679" style="fill: #d55e00; stroke: #d55e00"/>
    </g>
   </g>
   <g id="patch_13">
    <path d="M 487.48774 232.321635 
L 487.48774 34.198095 
" style="fill: none; stroke: #000000; stroke-width: 0.8; stroke-linejoin: miter; stroke-linecap: square"/>
   </g>
   <g id="patch_14">
    <path d="M 645.581791 232.321635 
L 645.581791 34.198095 
" style="fill: none; stroke: #000000; stroke-width: 0.8; stroke-linejoin: miter; stroke-linecap: square"/>
   </g>
   <g id="patch_15">
    <path d="M 487.48774 232.321635 
L 645.581791 232.321635 
" style="fill: none; stroke: #000000; stroke-width: 0.8; stroke-linejoin: miter; stroke-linecap: square"/>
   </g>
   <g id="patch_16">
    <path d="M 487.48774 34.198095 
L 645.581791 34.198095 
" style="fill: none; stroke: #000000; stroke-width: 0.8; stroke-linejoin: miter; stroke-linecap: square"/>
   </g>
  </g>
  <g id="axes_4">
   <g id="patch_17">
    <path d="M 702.905709 232.321635 
L 860.99976 232.321635 
L 860.99976 34.198095 
L 702.905709 34.198095 
z
" style="fill: #ffffff"/>
   </g>
   <g id="matplotlib.axis_7">
    <g id="xtick_7">
     <g id="line2d_62">
      <g>
       <use xlink:href="#m90b7a62028" x="742.429222" y="232.321635" style="stroke: #000000; stroke-width: 0.8"/>
      </g>
     </g>
     <g id="text_27">
      <!-- AP/P -->
      <g transform="translate(731.294847 246.920073) scale(0.1 -0.1)">
       <use xlink:href="#DejaVuSans-41"/>
       <use xlink:href="#DejaVuSans-50" transform="translate(68.408203 0)"/>
       <use xlink:href="#DejaVuSans-2f" transform="translate(128.710938 0)"/>
       <use xlink:href="#DejaVuSans-50" transform="translate(162.402344 0)"/>
      </g>
     </g>
    </g>
    <g id="xtick_8">
     <g id="line2d_63">
      <g>
       <use xlink:href="#m90b7a62028" x="821.476247" y="232.321635" style="stroke: #000000; stroke-width: 0.8"/>
      </g>
     </g>
     <g id="text_28">
      <!-- P/P -->
      <g transform="translate(813.762185 246.920073) scale(0.1 -0.1)">
       <use xlink:href="#DejaVuSans-50"/>
       <use xlink:href="#DejaVuSans-2f" transform="translate(60.302734 0)"/>
       <use xlink:href="#DejaVuSans-50" transform="translate(93.994141 0)"/>
      </g>
     </g>
    </g>
   </g>
   <g id="matplotlib.axis_8">
    <g id="ytick_18">
     <g id="line2d_64">
      <path d="M 702.905709 228.650226 
L 860.99976 228.650226 
" clip-path="url(#p9f23358344)" style="fill: none; stroke: #b0b0b0; stroke-opacity: 0.18; stroke-width: 0.8; stroke-linecap: square"/>
     </g>
     <g id="line2d_65">
      <g>
       <use xlink:href="#m11ae07a0b6" x="702.905709" y="228.650226" style="stroke: #000000; stroke-width: 0.8"/>
      </g>
     </g>
     <g id="text_29">
      <!-- −0.03 -->
      <g transform="translate(665.260396 232.449444) scale(0.1 -0.1)">
       <use xlink:href="#DejaVuSans-2212"/>
       <use xlink:href="#DejaVuSans-30" transform="translate(83.789062 0)"/>
       <use xlink:href="#DejaVuSans-2e" transform="translate(147.412109 0)"/>
       <use xlink:href="#DejaVuSans-30" transform="translate(179.199219 0)"/>
       <use xlink:href="#DejaVuSans-33" transform="translate(242.822266 0)"/>
      </g>
     </g>
    </g>
    <g id="ytick_19">
     <g id="line2d_66">
      <path d="M 702.905709 202.406656 
L 860.99976 202.406656 
" clip-path="url(#p9f23358344)" style="fill: none; stroke: #b0b0b0; stroke-opacity: 0.18; stroke-width: 0.8; stroke-linecap: square"/>
     </g>
     <g id="line2d_67">
      <g>
       <use xlink:href="#m11ae07a0b6" x="702.905709" y="202.406656" style="stroke: #000000; stroke-width: 0.8"/>
      </g>
     </g>
     <g id="text_30">
      <!-- −0.02 -->
      <g transform="translate(665.260396 206.205875) scale(0.1 -0.1)">
       <use xlink:href="#DejaVuSans-2212"/>
       <use xlink:href="#DejaVuSans-30" transform="translate(83.789062 0)"/>
       <use xlink:href="#DejaVuSans-2e" transform="translate(147.412109 0)"/>
       <use xlink:href="#DejaVuSans-30" transform="translate(179.199219 0)"/>
       <use xlink:href="#DejaVuSans-32" transform="translate(242.822266 0)"/>
      </g>
     </g>
    </g>
    <g id="ytick_20">
     <g id="line2d_68">
      <path d="M 702.905709 176.163086 
L 860.99976 176.163086 
" clip-path="url(#p9f23358344)" style="fill: none; stroke: #b0b0b0; stroke-opacity: 0.18; stroke-width: 0.8; stroke-linecap: square"/>
     </g>
     <g id="line2d_69">
      <g>
       <use xlink:href="#m11ae07a0b6" x="702.905709" y="176.163086" style="stroke: #000000; stroke-width: 0.8"/>
      </g>
     </g>
     <g id="text_31">
      <!-- −0.01 -->
      <g transform="translate(665.260396 179.962305) scale(0.1 -0.1)">
       <use xlink:href="#DejaVuSans-2212"/>
       <use xlink:href="#DejaVuSans-30" transform="translate(83.789062 0)"/>
       <use xlink:href="#DejaVuSans-2e" transform="translate(147.412109 0)"/>
       <use xlink:href="#DejaVuSans-30" transform="translate(179.199219 0)"/>
       <use xlink:href="#DejaVuSans-31" transform="translate(242.822266 0)"/>
      </g>
     </g>
    </g>
    <g id="ytick_21">
     <g id="line2d_70">
      <path d="M 702.905709 149.919516 
L 860.99976 149.919516 
" clip-path="url(#p9f23358344)" style="fill: none; stroke: #b0b0b0; stroke-opacity: 0.18; stroke-width: 0.8; stroke-linecap: square"/>
     </g>
     <g id="line2d_71">
      <g>
       <use xlink:href="#m11ae07a0b6" x="702.905709" y="149.919516" style="stroke: #000000; stroke-width: 0.8"/>
      </g>
     </g>
     <g id="text_32">
      <!-- 0.00 -->
      <g transform="translate(673.640084 153.718735) scale(0.1 -0.1)">
       <use xlink:href="#DejaVuSans-30"/>
       <use xlink:href="#DejaVuSans-2e" transform="translate(63.623047 0)"/>
       <use xlink:href="#DejaVuSans-30" transform="translate(95.410156 0)"/>
       <use xlink:href="#DejaVuSans-30" transform="translate(159.033203 0)"/>
      </g>
     </g>
    </g>
    <g id="ytick_22">
     <g id="line2d_72">
      <path d="M 702.905709 123.675946 
L 860.99976 123.675946 
" clip-path="url(#p9f23358344)" style="fill: none; stroke: #b0b0b0; stroke-opacity: 0.18; stroke-width: 0.8; stroke-linecap: square"/>
     </g>
     <g id="line2d_73">
      <g>
       <use xlink:href="#m11ae07a0b6" x="702.905709" y="123.675946" style="stroke: #000000; stroke-width: 0.8"/>
      </g>
     </g>
     <g id="text_33">
      <!-- 0.01 -->
      <g transform="translate(673.640084 127.475165) scale(0.1 -0.1)">
       <use xlink:href="#DejaVuSans-30"/>
       <use xlink:href="#DejaVuSans-2e" transform="translate(63.623047 0)"/>
       <use xlink:href="#DejaVuSans-30" transform="translate(95.410156 0)"/>
       <use xlink:href="#DejaVuSans-31" transform="translate(159.033203 0)"/>
      </g>
     </g>
    </g>
    <g id="ytick_23">
     <g id="line2d_74">
      <path d="M 702.905709 97.432376 
L 860.99976 97.432376 
" clip-path="url(#p9f23358344)" style="fill: none; stroke: #b0b0b0; stroke-opacity: 0.18; stroke-width: 0.8; stroke-linecap: square"/>
     </g>
     <g id="line2d_75">
      <g>
       <use xlink:href="#m11ae07a0b6" x="702.905709" y="97.432376" style="stroke: #000000; stroke-width: 0.8"/>
      </g>
     </g>
     <g id="text_34">
      <!-- 0.02 -->
      <g transform="translate(673.640084 101.231595) scale(0.1 -0.1)">
       <use xlink:href="#DejaVuSans-30"/>
       <use xlink:href="#DejaVuSans-2e" transform="translate(63.623047 0)"/>
       <use xlink:href="#DejaVuSans-30" transform="translate(95.410156 0)"/>
       <use xlink:href="#DejaVuSans-32" transform="translate(159.033203 0)"/>
      </g>
     </g>
    </g>
    <g id="ytick_24">
     <g id="line2d_76">
      <path d="M 702.905709 71.188807 
L 860.99976 71.188807 
" clip-path="url(#p9f23358344)" style="fill: none; stroke: #b0b0b0; stroke-opacity: 0.18; stroke-width: 0.8; stroke-linecap: square"/>
     </g>
     <g id="line2d_77">
      <g>
       <use xlink:href="#m11ae07a0b6" x="702.905709" y="71.188807" style="stroke: #000000; stroke-width: 0.8"/>
      </g>
     </g>
     <g id="text_35">
      <!-- 0.03 -->
      <g transform="translate(673.640084 74.988025) scale(0.1 -0.1)">
       <use xlink:href="#DejaVuSans-30"/>
       <use xlink:href="#DejaVuSans-2e" transform="translate(63.623047 0)"/>
       <use xlink:href="#DejaVuSans-30" transform="translate(95.410156 0)"/>
       <use xlink:href="#DejaVuSans-33" transform="translate(159.033203 0)"/>
      </g>
     </g>
    </g>
    <g id="ytick_25">
     <g id="line2d_78">
      <path d="M 702.905709 44.945237 
L 860.99976 44.945237 
" clip-path="url(#p9f23358344)" style="fill: none; stroke: #b0b0b0; stroke-opacity: 0.18; stroke-width: 0.8; stroke-linecap: square"/>
     </g>
     <g id="line2d_79">
      <g>
       <use xlink:href="#m11ae07a0b6" x="702.905709" y="44.945237" style="stroke: #000000; stroke-width: 0.8"/>
      </g>
     </g>
     <g id="text_36">
      <!-- 0.04 -->
      <g transform="translate(673.640084 48.744456) scale(0.1 -0.1)">
       <use xlink:href="#DejaVuSans-30"/>
       <use xlink:href="#DejaVuSans-2e" transform="translate(63.623047 0)"/>
       <use xlink:href="#DejaVuSans-30" transform="translate(95.410156 0)"/>
       <use xlink:href="#DejaVuSans-34" transform="translate(159.033203 0)"/>
      </g>
     </g>
    </g>
    <g id="text_37">
     <!-- $S_\perp(Q)-2S^{zz}(Q)$ -->
     <g transform="translate(659.180709 172.709865) rotate(-90) scale(0.1 -0.1)">
      <defs>
       <path id="STIXGeneral-Regular-27c2" d="M 4102 0 
L 333 0 
L 333 422 
L 2010 422 
L 2010 4237 
L 2432 4237 
L 2432 422 
L 4102 422 
L 4102 0 
z
" transform="scale(0.015625)"/>
       <path id="DejaVuSans-Oblique-7a" d="M 744 3500 
L 3475 3500 
L 3372 2975 
L 738 459 
L 2913 459 
L 2822 0 
L -19 0 
L 84 525 
L 2719 3041 
L 653 3041 
L 744 3500 
z
" transform="scale(0.015625)"/>
      </defs>
      <use xlink:href="#DejaVuSans-Oblique-53" transform="translate(0 0.4375)"/>
      <use xlink:href="#STIXGeneral-Regular-27c2" transform="translate(77.114258 -15.96875) scale(0.7)"/>
      <use xlink:href="#DejaVuSans-28" transform="translate(141.99632 0.4375)"/>
      <use xlink:href="#DejaVuSans-Oblique-51" transform="translate(181.009991 0.4375)"/>
      <use xlink:href="#DejaVuSans-29" transform="translate(259.720929 0.4375)"/>
      <use xlink:href="#DejaVuSans-2212" transform="translate(318.217023 0.4375)"/>
      <use xlink:href="#DejaVuSans-32" transform="translate(421.488507 0.4375)"/>
      <use xlink:href="#DejaVuSans-Oblique-53" transform="translate(485.111554 0.4375)"/>
      <use xlink:href="#DejaVuSans-Oblique-7a" transform="translate(555.788637 38.71875) scale(0.7)"/>
      <use xlink:href="#DejaVuSans-Oblique-7a" transform="translate(592.531801 38.71875) scale(0.7)"/>
      <use xlink:href="#DejaVuSans-28" transform="translate(632.00934 0.4375)"/>
      <use xlink:href="#DejaVuSans-Oblique-51" transform="translate(671.023012 0.4375)"/>
      <use xlink:href="#DejaVuSans-29" transform="translate(749.73395 0.4375)"/>
     </g>
    </g>
   </g>
   <g id="line2d_80">
    <path d="M 702.905709 149.919516 
L 860.99976 149.919516 
" clip-path="url(#p9f23358344)" style="fill: none; stroke-dasharray: 3.7,1.6; stroke-dashoffset: 0; stroke: #000000"/>
   </g>
   <g id="LineCollection_7">
    <path d="M 742.429222 223.31602 
L 742.429222 188.094312 
" clip-path="url(#p9f23358344)" style="fill: none; stroke: #0072b2; stroke-width: 1.5"/>
   </g>
   <g id="line2d_81">
    <g clip-path="url(#p9f23358344)">
     <use xlink:href="#m8474f11ac4" x="742.429222" y="223.31602" style="fill: #0072b2; stroke: #0072b2"/>
    </g>
   </g>
   <g id="line2d_82">
    <g clip-path="url(#p9f23358344)">
     <use xlink:href="#m8474f11ac4" x="742.429222" y="188.094312" style="fill: #0072b2; stroke: #0072b2"/>
    </g>
   </g>
   <g id="LineCollection_8">
    <path d="M 821.476247 148.417189 
L 821.476247 43.20371 
" clip-path="url(#p9f23358344)" style="fill: none; stroke: #d55e00; stroke-width: 1.5"/>
   </g>
   <g id="line2d_83">
    <g clip-path="url(#p9f23358344)">
     <use xlink:href="#me3ce7d4959" x="821.476247" y="148.417189" style="fill: #d55e00; stroke: #d55e00"/>
    </g>
   </g>
   <g id="line2d_84">
    <g clip-path="url(#p9f23358344)">
     <use xlink:href="#me3ce7d4959" x="821.476247" y="43.20371" style="fill: #d55e00; stroke: #d55e00"/>
    </g>
   </g>
   <g id="line2d_85">
    <g clip-path="url(#p9f23358344)">
     <use xlink:href="#ma4533a9e89" x="742.429222" y="205.705166" style="fill: #0072b2; stroke: #0072b2"/>
    </g>
   </g>
   <g id="line2d_86">
    <g clip-path="url(#p9f23358344)">
     <use xlink:href="#m08c74095b8" x="821.476247" y="95.81045" style="fill: #d55e00; stroke: #d55e00"/>
    </g>
   </g>
   <g id="patch_18">
    <path d="M 702.905709 232.321635 
L 702.905709 34.198095 
" style="fill: none; stroke: #000000; stroke-width: 0.8; stroke-linejoin: miter; stroke-linecap: square"/>
   </g>
   <g id="patch_19">
    <path d="M 860.99976 232.321635 
L 860.99976 34.198095 
" style="fill: none; stroke: #000000; stroke-width: 0.8; stroke-linejoin: miter; stroke-linecap: square"/>
   </g>
   <g id="patch_20">
    <path d="M 702.905709 232.321635 
L 860.99976 232.321635 
" style="fill: none; stroke: #000000; stroke-width: 0.8; stroke-linejoin: miter; stroke-linecap: square"/>
   </g>
   <g id="patch_21">
    <path d="M 702.905709 34.198095 
L 860.99976 34.198095 
" style="fill: none; stroke: #000000; stroke-width: 0.8; stroke-linejoin: miter; stroke-linecap: square"/>
   </g>
  </g>
  <g id="text_38">
   <!-- Matched control at $\beta=16$, $\Delta\tau\to0$: residuals and SU(2) -->
   <g transform="translate(269.16 12.24024) scale(0.12 -0.12)">
    <defs>
     <path id="DejaVuSans-4d" d="M 628 4666 
L 1569 4666 
L 2759 1491 
L 3956 4666 
L 4897 4666 
L 4897 0 
L 4281 0 
L 4281 4097 
L 3078 897 
L 2444 897 
L 1241 4097 
L 1241 0 
L 628 0 
L 628 4666 
z
" transform="scale(0.015625)"/>
     <path id="DejaVuSans-61" d="M 2194 1759 
Q 1497 1759 1228 1600 
Q 959 1441 959 1056 
Q 959 750 1161 570 
Q 1363 391 1709 391 
Q 2188 391 2477 730 
Q 2766 1069 2766 1631 
L 2766 1759 
L 2194 1759 
z
M 3341 1997 
L 3341 0 
L 2766 0 
L 2766 531 
Q 2569 213 2275 61 
Q 1981 -91 1556 -91 
Q 1019 -91 701 211 
Q 384 513 384 1019 
Q 384 1609 779 1909 
Q 1175 2209 1959 2209 
L 2766 2209 
L 2766 2266 
Q 2766 2663 2505 2880 
Q 2244 3097 1772 3097 
Q 1472 3097 1187 3025 
Q 903 2953 641 2809 
L 641 3341 
Q 956 3463 1253 3523 
Q 1550 3584 1831 3584 
Q 2591 3584 2966 3190 
Q 3341 2797 3341 1997 
z
" transform="scale(0.015625)"/>
     <path id="DejaVuSans-74" d="M 1172 4494 
L 1172 3500 
L 2356 3500 
L 2356 3053 
L 1172 3053 
L 1172 1153 
Q 1172 725 1289 603 
Q 1406 481 1766 481 
L 2356 481 
L 2356 0 
L 1766 0 
Q 1100 0 847 248 
Q 594 497 594 1153 
L 594 3053 
L 172 3053 
L 172 3500 
L 594 3500 
L 594 4494 
L 1172 4494 
z
" transform="scale(0.015625)"/>
     <path id="DejaVuSans-63" d="M 3122 3366 
L 3122 2828 
Q 2878 2963 2633 3030 
Q 2388 3097 2138 3097 
Q 1578 3097 1268 2742 
Q 959 2388 959 1747 
Q 959 1106 1268 751 
Q 1578 397 2138 397 
Q 2388 397 2633 464 
Q 2878 531 3122 666 
L 3122 134 
Q 2881 22 2623 -34 
Q 2366 -91 2075 -91 
Q 1284 -91 818 406 
Q 353 903 353 1747 
Q 353 2603 823 3093 
Q 1294 3584 2113 3584 
Q 2378 3584 2631 3529 
Q 2884 3475 3122 3366 
z
" transform="scale(0.015625)"/>
     <path id="DejaVuSans-68" d="M 3513 2113 
L 3513 0 
L 2938 0 
L 2938 2094 
Q 2938 2591 2744 2837 
Q 2550 3084 2163 3084 
Q 1697 3084 1428 2787 
Q 1159 2491 1159 1978 
L 1159 0 
L 581 0 
L 581 4863 
L 1159 4863 
L 1159 2956 
Q 1366 3272 1645 3428 
Q 1925 3584 2291 3584 
Q 2894 3584 3203 3211 
Q 3513 2838 3513 2113 
z
" transform="scale(0.015625)"/>
     <path id="DejaVuSans-65" d="M 3597 1894 
L 3597 1613 
L 953 1613 
Q 991 1019 1311 708 
Q 1631 397 2203 397 
Q 2534 397 2845 478 
Q 3156 559 3463 722 
L 3463 178 
Q 3153 47 2828 -22 
Q 2503 -91 2169 -91 
Q 1331 -91 842 396 
Q 353 884 353 1716 
Q 353 2575 817 3079 
Q 1281 3584 2069 3584 
Q 2775 3584 3186 3129 
Q 3597 2675 3597 1894 
z
M 3022 2063 
Q 3016 2534 2758 2815 
Q 2500 3097 2075 3097 
Q 1594 3097 1305 2825 
Q 1016 2553 972 2059 
L 3022 2063 
z
" transform="scale(0.015625)"/>
     <path id="DejaVuSans-64" d="M 2906 2969 
L 2906 4863 
L 3481 4863 
L 3481 0 
L 2906 0 
L 2906 525 
Q 2725 213 2448 61 
Q 2172 -91 1784 -91 
Q 1150 -91 751 415 
Q 353 922 353 1747 
Q 353 2572 751 3078 
Q 1150 3584 1784 3584 
Q 2172 3584 2448 3432 
Q 2725 3281 2906 2969 
z
M 947 1747 
Q 947 1113 1208 752 
Q 1469 391 1925 391 
Q 2381 391 2643 752 
Q 2906 1113 2906 1747 
Q 2906 2381 2643 2742 
Q 2381 3103 1925 3103 
Q 1469 3103 1208 2742 
Q 947 2381 947 1747 
z
" transform="scale(0.015625)"/>
     <path id="DejaVuSans-20" transform="scale(0.015625)"/>
     <path id="DejaVuSans-6f" d="M 1959 3097 
Q 1497 3097 1228 2736 
Q 959 2375 959 1747 
Q 959 1119 1226 758 
Q 1494 397 1959 397 
Q 2419 397 2687 759 
Q 2956 1122 2956 1747 
Q 2956 2369 2687 2733 
Q 2419 3097 1959 3097 
z
M 1959 3584 
Q 2709 3584 3137 3096 
Q 3566 2609 3566 1747 
Q 3566 888 3137 398 
Q 2709 -91 1959 -91 
Q 1206 -91 779 398 
Q 353 888 353 1747 
Q 353 2609 779 3096 
Q 1206 3584 1959 3584 
z
" transform="scale(0.015625)"/>
     <path id="DejaVuSans-6e" d="M 3513 2113 
L 3513 0 
L 2938 0 
L 2938 2094 
Q 2938 2591 2744 2837 
Q 2550 3084 2163 3084 
Q 1697 3084 1428 2787 
Q 1159 2491 1159 1978 
L 1159 0 
L 581 0 
L 581 3500 
L 1159 3500 
L 1159 2956 
Q 1366 3272 1645 3428 
Q 1925 3584 2291 3584 
Q 2894 3584 3203 3211 
Q 3513 2838 3513 2113 
z
" transform="scale(0.015625)"/>
     <path id="DejaVuSans-72" d="M 2631 2963 
Q 2534 3019 2420 3045 
Q 2306 3072 2169 3072 
Q 1681 3072 1420 2755 
Q 1159 2438 1159 1844 
L 1159 0 
L 581 0 
L 581 3500 
L 1159 3500 
L 1159 2956 
Q 1341 3275 1631 3429 
Q 1922 3584 2338 3584 
Q 2397 3584 2469 3576 
Q 2541 3569 2628 3553 
L 2631 2963 
z
" transform="scale(0.015625)"/>
     <path id="DejaVuSans-6c" d="M 603 4863 
L 1178 4863 
L 1178 0 
L 603 0 
L 603 4863 
z
" transform="scale(0.015625)"/>
     <path id="DejaVuSans-Oblique-3b2" d="M 872 216 
L 572 -1331 
L -6 -1331 
L 928 3478 
Q 1206 4903 2538 4903 
Q 3888 4903 3659 3700 
Q 3503 2844 2894 2531 
Q 3713 2250 3553 1416 
Q 3272 -69 1759 -66 
Q 1097 -63 872 216 
z
M 1019 966 
Q 1259 422 1875 425 
Q 2775 425 2966 1406 
Q 3138 2288 1675 2219 
L 1778 2750 
Q 2909 2731 3106 3750 
Q 3241 4438 2509 4434 
Q 1691 4434 1503 3459 
L 1019 966 
z
" transform="scale(0.015625)"/>
     <path id="DejaVuSans-3d" d="M 678 2906 
L 4684 2906 
L 4684 2381 
L 678 2381 
L 678 2906 
z
M 678 1631 
L 4684 1631 
L 4684 1100 
L 678 1100 
L 678 1631 
z
" transform="scale(0.015625)"/>
     <path id="DejaVuSans-2c" d="M 750 794 
L 1409 794 
L 1409 256 
L 897 -744 
L 494 -744 
L 750 256 
L 750 794 
z
" transform="scale(0.015625)"/>
     <path id="DejaVuSans-394" d="M 2188 4044 
L 906 525 
L 3472 525 
L 2188 4044 
z
M 50 0 
L 1831 4666 
L 2547 4666 
L 4325 0 
L 50 0 
z
" transform="scale(0.015625)"/>
     <path id="DejaVuSans-Oblique-3c4" d="M 2103 638 
Q 2188 488 2525 488 
L 2800 488 
L 2706 0 
L 2363 0 
Q 1800 0 1600 300 
Q 1403 606 1534 1269 
L 1856 2925 
L 541 2925 
L 653 3500 
L 3881 3500 
L 3769 2925 
L 2444 2925 
L 2113 1234 
Q 2025 781 2103 638 
z
" transform="scale(0.015625)"/>
     <path id="DejaVuSans-2192" d="M 5050 2147 
L 5050 1866 
L 3822 638 
L 3447 1013 
L 4175 1741 
L 366 1741 
L 366 2272 
L 4175 2272 
L 3447 3000 
L 3822 3375 
L 5050 2147 
z
" transform="scale(0.015625)"/>
     <path id="DejaVuSans-3a" d="M 750 794 
L 1409 794 
L 1409 0 
L 750 0 
L 750 794 
z
M 750 3309 
L 1409 3309 
L 1409 2516 
L 750 2516 
L 750 3309 
z
" transform="scale(0.015625)"/>
     <path id="DejaVuSans-73" d="M 2834 3397 
L 2834 2853 
Q 2591 2978 2328 3040 
Q 2066 3103 1784 3103 
Q 1356 3103 1142 2972 
Q 928 2841 928 2578 
Q 928 2378 1081 2264 
Q 1234 2150 1697 2047 
L 1894 2003 
Q 2506 1872 2764 1633 
Q 3022 1394 3022 966 
Q 3022 478 2636 193 
Q 2250 -91 1575 -91 
Q 1294 -91 989 -36 
Q 684 19 347 128 
L 347 722 
Q 666 556 975 473 
Q 1284 391 1588 391 
Q 1994 391 2212 530 
Q 2431 669 2431 922 
Q 2431 1156 2273 1281 
Q 2116 1406 1581 1522 
L 1381 1569 
Q 847 1681 609 1914 
Q 372 2147 372 2553 
Q 372 3047 722 3315 
Q 1072 3584 1716 3584 
Q 2034 3584 2315 3537 
Q 2597 3491 2834 3397 
z
" transform="scale(0.015625)"/>
     <path id="DejaVuSans-69" d="M 603 3500 
L 1178 3500 
L 1178 0 
L 603 0 
L 603 3500 
z
M 603 4863 
L 1178 4863 
L 1178 4134 
L 603 4134 
L 603 4863 
z
" transform="scale(0.015625)"/>
     <path id="DejaVuSans-75" d="M 544 1381 
L 544 3500 
L 1119 3500 
L 1119 1403 
Q 1119 906 1312 657 
Q 1506 409 1894 409 
Q 2359 409 2629 706 
Q 2900 1003 2900 1516 
L 2900 3500 
L 3475 3500 
L 3475 0 
L 2900 0 
L 2900 538 
Q 2691 219 2414 64 
Q 2138 -91 1772 -91 
Q 1169 -91 856 284 
Q 544 659 544 1381 
z
M 1991 3584 
L 1991 3584 
z
" transform="scale(0.015625)"/>
     <path id="DejaVuSans-53" d="M 3425 4513 
L 3425 3897 
Q 3066 4069 2747 4153 
Q 2428 4238 2131 4238 
Q 1616 4238 1336 4038 
Q 1056 3838 1056 3469 
Q 1056 3159 1242 3001 
Q 1428 2844 1947 2747 
L 2328 2669 
Q 3034 2534 3370 2195 
Q 3706 1856 3706 1288 
Q 3706 609 3251 259 
Q 2797 -91 1919 -91 
Q 1588 -91 1214 -16 
Q 841 59 441 206 
L 441 856 
Q 825 641 1194 531 
Q 1563 422 1919 422 
Q 2459 422 2753 634 
Q 3047 847 3047 1241 
Q 3047 1584 2836 1778 
Q 2625 1972 2144 2069 
L 1759 2144 
Q 1053 2284 737 2584 
Q 422 2884 422 3419 
Q 422 4038 858 4394 
Q 1294 4750 2059 4750 
Q 2388 4750 2728 4690 
Q 3069 4631 3425 4513 
z
" transform="scale(0.015625)"/>
     <path id="DejaVuSans-55" d="M 556 4666 
L 1191 4666 
L 1191 1831 
Q 1191 1081 1462 751 
Q 1734 422 2344 422 
Q 2950 422 3222 751 
Q 3494 1081 3494 1831 
L 3494 4666 
L 4128 4666 
L 4128 1753 
Q 4128 841 3676 375 
Q 3225 -91 2344 -91 
Q 1459 -91 1007 375 
Q 556 841 556 1753 
L 556 4666 
z
" transform="scale(0.015625)"/>
    </defs>
    <use xlink:href="#DejaVuSans-4d" transform="translate(0 0.390625)"/>
    <use xlink:href="#DejaVuSans-61" transform="translate(86.279297 0.390625)"/>
    <use xlink:href="#DejaVuSans-74" transform="translate(147.558594 0.390625)"/>
    <use xlink:href="#DejaVuSans-63" transform="translate(186.767578 0.390625)"/>
    <use xlink:href="#DejaVuSans-68" transform="translate(241.748047 0.390625)"/>
    <use xlink:href="#DejaVuSans-65" transform="translate(305.126953 0.390625)"/>
    <use xlink:href="#DejaVuSans-64" transform="translate(366.650391 0.390625)"/>
    <use xlink:href="#DejaVuSans-20" transform="translate(430.126953 0.390625)"/>
    <use xlink:href="#DejaVuSans-63" transform="translate(461.914062 0.390625)"/>
    <use xlink:href="#DejaVuSans-6f" transform="translate(516.894531 0.390625)"/>
    <use xlink:href="#DejaVuSans-6e" transform="translate(578.076172 0.390625)"/>
    <use xlink:href="#DejaVuSans-74" transform="translate(641.455078 0.390625)"/>
    <use xlink:href="#DejaVuSans-72" transform="translate(680.664062 0.390625)"/>
    <use xlink:href="#DejaVuSans-6f" transform="translate(721.777344 0.390625)"/>
    <use xlink:href="#DejaVuSans-6c" transform="translate(782.958984 0.390625)"/>
    <use xlink:href="#DejaVuSans-20" transform="translate(810.742188 0.390625)"/>
    <use xlink:href="#DejaVuSans-61" transform="translate(842.529297 0.390625)"/>
    <use xlink:href="#DejaVuSans-74" transform="translate(903.808594 0.390625)"/>
    <use xlink:href="#DejaVuSans-20" transform="translate(943.017578 0.390625)"/>
    <use xlink:href="#DejaVuSans-Oblique-3b2" transform="translate(974.804688 0.390625)"/>
    <use xlink:href="#DejaVuSans-3d" transform="translate(1058.105469 0.390625)"/>
    <use xlink:href="#DejaVuSans-31" transform="translate(1161.376953 0.390625)"/>
    <use xlink:href="#DejaVuSans-36" transform="translate(1225 0.390625)"/>
    <use xlink:href="#DejaVuSans-2c" transform="translate(1288.623047 0.390625)"/>
    <use xlink:href="#DejaVuSans-20" transform="translate(1320.410156 0.390625)"/>
    <use xlink:href="#DejaVuSans-394" transform="translate(1352.197266 0.390625)"/>
    <use xlink:href="#DejaVuSans-Oblique-3c4" transform="translate(1420.605469 0.390625)"/>
    <use xlink:href="#DejaVuSans-2192" transform="translate(1500.292969 0.390625)"/>
    <use xlink:href="#DejaVuSans-30" transform="translate(1603.564453 0.390625)"/>
    <use xlink:href="#DejaVuSans-3a" transform="translate(1667.1875 0.390625)"/>
    <use xlink:href="#DejaVuSans-20" transform="translate(1700.878906 0.390625)"/>
    <use xlink:href="#DejaVuSans-72" transform="translate(1732.666016 0.390625)"/>
    <use xlink:href="#DejaVuSans-65" transform="translate(1773.779297 0.390625)"/>
    <use xlink:href="#DejaVuSans-73" transform="translate(1835.302734 0.390625)"/>
    <use xlink:href="#DejaVuSans-69" transform="translate(1887.402344 0.390625)"/>
    <use xlink:href="#DejaVuSans-64" transform="translate(1915.185547 0.390625)"/>
    <use xlink:href="#DejaVuSans-75" transform="translate(1978.662109 0.390625)"/>
    <use xlink:href="#DejaVuSans-61" transform="translate(2042.041016 0.390625)"/>
    <use xlink:href="#DejaVuSans-6c" transform="translate(2103.320312 0.390625)"/>
    <use xlink:href="#DejaVuSans-73" transform="translate(2131.103516 0.390625)"/>
    <use xlink:href="#DejaVuSans-20" transform="translate(2183.203125 0.390625)"/>
    <use xlink:href="#DejaVuSans-61" transform="translate(2214.990234 0.390625)"/>
    <use xlink:href="#DejaVuSans-6e" transform="translate(2276.269531 0.390625)"/>
    <use xlink:href="#DejaVuSans-64" transform="translate(2339.648438 0.390625)"/>
    <use xlink:href="#DejaVuSans-20" transform="translate(2403.125 0.390625)"/>
    <use xlink:href="#DejaVuSans-53" transform="translate(2434.912109 0.390625)"/>
    <use xlink:href="#DejaVuSans-55" transform="translate(2498.388672 0.390625)"/>
    <use xlink:href="#DejaVuSans-28" transform="translate(2571.582031 0.390625)"/>
    <use xlink:href="#DejaVuSans-32" transform="translate(2610.595703 0.390625)"/>
    <use xlink:href="#DejaVuSans-29" transform="translate(2674.21875 0.390625)"/>
   </g>
   <!-- Error bars: 1 SE across four seeds per point, propagated through the fit -->
   <g transform="translate(217.889062 25.70199) scale(0.12 -0.12)">
    <defs>
     <path id="DejaVuSans-45" d="M 628 4666 
L 3578 4666 
L 3578 4134 
L 1259 4134 
L 1259 2753 
L 3481 2753 
L 3481 2222 
L 1259 2222 
L 1259 531 
L 3634 531 
L 3634 0 
L 628 0 
L 628 4666 
z
" transform="scale(0.015625)"/>
     <path id="DejaVuSans-62" d="M 3116 1747 
Q 3116 2381 2855 2742 
Q 2594 3103 2138 3103 
Q 1681 3103 1420 2742 
Q 1159 2381 1159 1747 
Q 1159 1113 1420 752 
Q 1681 391 2138 391 
Q 2594 391 2855 752 
Q 3116 1113 3116 1747 
z
M 1159 2969 
Q 1341 3281 1617 3432 
Q 1894 3584 2278 3584 
Q 2916 3584 3314 3078 
Q 3713 2572 3713 1747 
Q 3713 922 3314 415 
Q 2916 -91 2278 -91 
Q 1894 -91 1617 61 
Q 1341 213 1159 525 
L 1159 0 
L 581 0 
L 581 4863 
L 1159 4863 
L 1159 2969 
z
" transform="scale(0.015625)"/>
     <path id="DejaVuSans-66" d="M 2375 4863 
L 2375 4384 
L 1825 4384 
Q 1516 4384 1395 4259 
Q 1275 4134 1275 3809 
L 1275 3500 
L 2222 3500 
L 2222 3053 
L 1275 3053 
L 1275 0 
L 697 0 
L 697 3053 
L 147 3053 
L 147 3500 
L 697 3500 
L 697 3744 
Q 697 4328 969 4595 
Q 1241 4863 1831 4863 
L 2375 4863 
z
" transform="scale(0.015625)"/>
     <path id="DejaVuSans-70" d="M 1159 525 
L 1159 -1331 
L 581 -1331 
L 581 3500 
L 1159 3500 
L 1159 2969 
Q 1341 3281 1617 3432 
Q 1894 3584 2278 3584 
Q 2916 3584 3314 3078 
Q 3713 2572 3713 1747 
Q 3713 922 3314 415 
Q 2916 -91 2278 -91 
Q 1894 -91 1617 61 
Q 1341 213 1159 525 
z
M 3116 1747 
Q 3116 2381 2855 2742 
Q 2594 3103 2138 3103 
Q 1681 3103 1420 2742 
Q 1159 2381 1159 1747 
Q 1159 1113 1420 752 
Q 1681 391 2138 391 
Q 2594 391 2855 752 
Q 3116 1113 3116 1747 
z
" transform="scale(0.015625)"/>
     <path id="DejaVuSans-67" d="M 2906 1791 
Q 2906 2416 2648 2759 
Q 2391 3103 1925 3103 
Q 1463 3103 1205 2759 
Q 947 2416 947 1791 
Q 947 1169 1205 825 
Q 1463 481 1925 481 
Q 2391 481 2648 825 
Q 2906 1169 2906 1791 
z
M 3481 434 
Q 3481 -459 3084 -895 
Q 2688 -1331 1869 -1331 
Q 1566 -1331 1297 -1286 
Q 1028 -1241 775 -1147 
L 775 -588 
Q 1028 -725 1275 -790 
Q 1522 -856 1778 -856 
Q 2344 -856 2625 -561 
Q 2906 -266 2906 331 
L 2906 616 
Q 2728 306 2450 153 
Q 2172 0 1784 0 
Q 1141 0 747 490 
Q 353 981 353 1791 
Q 353 2603 747 3093 
Q 1141 3584 1784 3584 
Q 2172 3584 2450 3431 
Q 2728 3278 2906 2969 
L 2906 3500 
L 3481 3500 
L 3481 434 
z
" transform="scale(0.015625)"/>
    </defs>
    <use xlink:href="#DejaVuSans-45"/>
    <use xlink:href="#DejaVuSans-72" transform="translate(63.183594 0)"/>
    <use xlink:href="#DejaVuSans-72" transform="translate(102.546875 0)"/>
    <use xlink:href="#DejaVuSans-6f" transform="translate(141.410156 0)"/>
    <use xlink:href="#DejaVuSans-72" transform="translate(202.591797 0)"/>
    <use xlink:href="#DejaVuSans-20" transform="translate(243.705078 0)"/>
    <use xlink:href="#DejaVuSans-62" transform="translate(275.492188 0)"/>
    <use xlink:href="#DejaVuSans-61" transform="translate(338.96875 0)"/>
    <use xlink:href="#DejaVuSans-72" transform="translate(400.248047 0)"/>
    <use xlink:href="#DejaVuSans-73" transform="translate(441.361328 0)"/>
    <use xlink:href="#DejaVuSans-3a" transform="translate(493.460938 0)"/>
    <use xlink:href="#DejaVuSans-20" transform="translate(527.152344 0)"/>
    <use xlink:href="#DejaVuSans-31" transform="translate(558.939453 0)"/>
    <use xlink:href="#DejaVuSans-20" transform="translate(622.5625 0)"/>
    <use xlink:href="#DejaVuSans-53" transform="translate(654.349609 0)"/>
    <use xlink:href="#DejaVuSans-45" transform="translate(717.826172 0)"/>
    <use xlink:href="#DejaVuSans-20" transform="translate(781.009766 0)"/>
    <use xlink:href="#DejaVuSans-61" transform="translate(812.796875 0)"/>
    <use xlink:href="#DejaVuSans-63" transform="translate(874.076172 0)"/>
    <use xlink:href="#DejaVuSans-72" transform="translate(929.056641 0)"/>
    <use xlink:href="#DejaVuSans-6f" transform="translate(967.919922 0)"/>
    <use xlink:href="#DejaVuSans-73" transform="translate(1029.101562 0)"/>
    <use xlink:href="#DejaVuSans-73" transform="translate(1081.201172 0)"/>
    <use xlink:href="#DejaVuSans-20" transform="translate(1133.300781 0)"/>
    <use xlink:href="#DejaVuSans-66" transform="translate(1165.087891 0)"/>
    <use xlink:href="#DejaVuSans-6f" transform="translate(1200.292969 0)"/>
    <use xlink:href="#DejaVuSans-75" transform="translate(1261.474609 0)"/>
    <use xlink:href="#DejaVuSans-72" transform="translate(1324.853516 0)"/>
    <use xlink:href="#DejaVuSans-20" transform="translate(1365.966797 0)"/>
    <use xlink:href="#DejaVuSans-73" transform="translate(1397.753906 0)"/>
    <use xlink:href="#DejaVuSans-65" transform="translate(1449.853516 0)"/>
    <use xlink:href="#DejaVuSans-65" transform="translate(1511.376953 0)"/>
    <use xlink:href="#DejaVuSans-64" transform="translate(1572.900391 0)"/>
    <use xlink:href="#DejaVuSans-73" transform="translate(1636.376953 0)"/>
    <use xlink:href="#DejaVuSans-20" transform="translate(1688.476562 0)"/>
    <use xlink:href="#DejaVuSans-70" transform="translate(1720.263672 0)"/>
    <use xlink:href="#DejaVuSans-65" transform="translate(1783.740234 0)"/>
    <use xlink:href="#DejaVuSans-72" transform="translate(1845.263672 0)"/>
    <use xlink:href="#DejaVuSans-20" transform="translate(1886.376953 0)"/>
    <use xlink:href="#DejaVuSans-70" transform="translate(1918.164062 0)"/>
    <use xlink:href="#DejaVuSans-6f" transform="translate(1981.640625 0)"/>
    <use xlink:href="#DejaVuSans-69" transform="translate(2042.822266 0)"/>
    <use xlink:href="#DejaVuSans-6e" transform="translate(2070.605469 0)"/>
    <use xlink:href="#DejaVuSans-74" transform="translate(2133.984375 0)"/>
    <use xlink:href="#DejaVuSans-2c" transform="translate(2173.193359 0)"/>
    <use xlink:href="#DejaVuSans-20" transform="translate(2204.980469 0)"/>
    <use xlink:href="#DejaVuSans-70" transform="translate(2236.767578 0)"/>
    <use xlink:href="#DejaVuSans-72" transform="translate(2300.244141 0)"/>
    <use xlink:href="#DejaVuSans-6f" transform="translate(2339.107422 0)"/>
    <use xlink:href="#DejaVuSans-70" transform="translate(2400.289062 0)"/>
    <use xlink:href="#DejaVuSans-61" transform="translate(2463.765625 0)"/>
    <use xlink:href="#DejaVuSans-67" transform="translate(2525.044922 0)"/>
    <use xlink:href="#DejaVuSans-61" transform="translate(2588.521484 0)"/>
    <use xlink:href="#DejaVuSans-74" transform="translate(2649.800781 0)"/>
    <use xlink:href="#DejaVuSans-65" transform="translate(2689.009766 0)"/>
    <use xlink:href="#DejaVuSans-64" transform="translate(2750.533203 0)"/>
    <use xlink:href="#DejaVuSans-20" transform="translate(2814.009766 0)"/>
    <use xlink:href="#DejaVuSans-74" transform="translate(2845.796875 0)"/>
    <use xlink:href="#DejaVuSans-68" transform="translate(2885.005859 0)"/>
    <use xlink:href="#DejaVuSans-72" transform="translate(2948.384766 0)"/>
    <use xlink:href="#DejaVuSans-6f" transform="translate(2987.248047 0)"/>
    <use xlink:href="#DejaVuSans-75" transform="translate(3048.429688 0)"/>
    <use xlink:href="#DejaVuSans-67" transform="translate(3111.808594 0)"/>
    <use xlink:href="#DejaVuSans-68" transform="translate(3175.285156 0)"/>
    <use xlink:href="#DejaVuSans-20" transform="translate(3238.664062 0)"/>
    <use xlink:href="#DejaVuSans-74" transform="translate(3270.451172 0)"/>
    <use xlink:href="#DejaVuSans-68" transform="translate(3309.660156 0)"/>
    <use xlink:href="#DejaVuSans-65" transform="translate(3373.039062 0)"/>
    <use xlink:href="#DejaVuSans-20" transform="translate(3434.5625 0)"/>
    <use xlink:href="#DejaVuSans-66" transform="translate(3466.349609 0)"/>
    <use xlink:href="#DejaVuSans-69" transform="translate(3501.554688 0)"/>
    <use xlink:href="#DejaVuSans-74" transform="translate(3529.337891 0)"/>
   </g>
  </g>
 </g>
 <defs>
  <clipPath id="pcf16ce5833">
   <rect x="52.30649" y="34.198095" width="158.094051" height="198.12354"/>
  </clipPath>
  <clipPath id="p5a22620819">
   <rect x="272.069771" y="34.198095" width="158.094051" height="198.12354"/>
  </clipPath>
  <clipPath id="p5999651368">
   <rect x="487.48774" y="34.198095" width="158.094051" height="198.12354"/>
  </clipPath>
  <clipPath id="p9f23358344">
   <rect x="702.905709" y="34.198095" width="158.094051" height="198.12354"/>
  </clipPath>
 </defs>
</svg>
